<svg width="800" height="600" xmlns="http://www.w3.org/2000/svg">
  <defs>
    <linearGradient id="grad3" x1="0%" y1="0%" x2="100%" y2="100%">
      <stop offset="0%" style="stop-color:#1e3a8a;stop-opacity:1" />
      <stop offset="100%" style="stop-color:#7c3aed;stop-opacity:1" />
    </linearGradient>
  </defs>
  
  <!-- Background -->
  <rect width="800" height="600" fill="url(#grad3)"/>
  
  <!-- Phone mockup 1 -->
  <rect x="200" y="100" width="160" height="300" rx="25" fill="#1f2937" stroke="#374151" stroke-width="3"/>
  <rect x="210" y="120" width="140" height="260" rx="15" fill="white"/>
  
  <!-- Phone 1 - Login screen -->
  <text x="280" y="150" font-family="Arial, sans-serif" font-size="14" font-weight="bold" fill="#1f2937" text-anchor="middle">SecureBank</text>
  <rect x="230" y="170" width="100" height="30" rx="15" fill="#3b82f6"/>
  <text x="280" y="188" font-family="Arial, sans-serif" font-size="10" fill="white" text-anchor="middle">Face ID Login</text>
  <rect x="240" y="220" width="80" height="20" rx="4" fill="#f3f4f6"/>
  <text x="280" y="232" font-family="Arial, sans-serif" font-size="8" fill="#6b7280" text-anchor="middle">Email</text>
  <rect x="240" y="250" width="80" height="20" rx="4" fill="#f3f4f6"/>
  <text x="280" y="262" font-family="Arial, sans-serif" font-size="8" fill="#6b7280" text-anchor="middle">Password</text>
  <rect x="240" y="290" width="80" height="25" rx="4" fill="#059669"/>
  <text x="280" y="305" font-family="Arial, sans-serif" font-size="9" fill="white" text-anchor="middle">Login</text>
  
  <!-- Phone mockup 2 -->
  <rect x="440" y="100" width="160" height="300" rx="25" fill="#1f2937" stroke="#374151" stroke-width="3"/>
  <rect x="450" y="120" width="140" height="260" rx="15" fill="white"/>
  
  <!-- Phone 2 - Dashboard -->
  <rect x="450" y="120" width="140" height="40" fill="#1e40af"/>
  <text x="520" y="135" font-family="Arial, sans-serif" font-size="10" fill="white" text-anchor="middle">Welcome back!</text>
  <text x="520" y="150" font-family="Arial, sans-serif" font-size="12" font-weight="bold" fill="white" text-anchor="middle">John Doe</text>
  
  <!-- Account balance -->
  <rect x="460" y="180" width="120" height="50" rx="8" fill="#f0f9ff" stroke="#0ea5e9"/>
  <text x="470" y="195" font-family="Arial, sans-serif" font-size="8" fill="#0369a1">Checking Account</text>
  <text x="520" y="210" font-family="Arial, sans-serif" font-size="16" font-weight="bold" fill="#0c4a6e" text-anchor="middle">$12,485.50</text>
  <text x="570" y="220" font-family="Arial, sans-serif" font-size="7" fill="#059669" text-anchor="end">Available</text>
  
  <!-- Quick actions -->
  <rect x="460" y="250" width="25" height="25" rx="4" fill="#10b981"/>
  <text x="472" y="265" font-family="Arial, sans-serif" font-size="8" fill="white" text-anchor="middle">$</text>
  <text x="500" y="265" font-family="Arial, sans-serif" font-size="8" fill="#374151">Transfer</text>
  
  <rect x="460" y="285" width="25" height="25" rx="4" fill="#f59e0b"/>
  <text x="472" y="300" font-family="Arial, sans-serif" font-size="8" fill="white" text-anchor="middle">💳</text>
  <text x="500" y="300" font-family="Arial, sans-serif" font-size="8" fill="#374151">Pay Bills</text>
  
  <rect x="460" y="320" width="25" height="25" rx="4" fill="#8b5cf6"/>
  <text x="472" y="335" font-family="Arial, sans-serif" font-size="8" fill="white" text-anchor="middle">📷</text>
  <text x="500" y="335" font-family="Arial, sans-serif" font-size="8" fill="#374151">Deposit</text>
  
  <!-- Recent transactions -->
  <text x="460" y="365" font-family="Arial, sans-serif" font-size="9" font-weight="bold" fill="#374151">Recent Activity</text>
  
  <!-- Security icons -->
  <circle cx="150" cy="300" r="30" fill="rgba(255,255,255,0.1)" stroke="white" stroke-width="2"/>
  <text x="150" y="290" font-family="Arial, sans-serif" font-size="20" fill="white" text-anchor="middle">🔒</text>
  <text x="150" y="320" font-family="Arial, sans-serif" font-size="10" fill="white" text-anchor="middle">Secure</text>
  
  <circle cx="650" cy="300" r="30" fill="rgba(255,255,255,0.1)" stroke="white" stroke-width="2"/>
  <text x="650" y="290" font-family="Arial, sans-serif" font-size="20" fill="white" text-anchor="middle">👤</text>
  <text x="650" y="320" font-family="Arial, sans-serif" font-size="10" fill="white" text-anchor="middle">Biometric</text>
  
  <!-- Title -->
  <text x="400" y="40" font-family="Arial, sans-serif" font-size="24" font-weight="bold" fill="white" text-anchor="middle">Mobile Banking App</text>
  <text x="400" y="60" font-family="Arial, sans-serif" font-size="14" fill="white" text-anchor="middle">Secure Financial Management</text>
</svg>