<svg width="800" height="600" xmlns="http://www.w3.org/2000/svg">
  <defs>
    <linearGradient id="grad2" x1="0%" y1="0%" x2="100%" y2="100%">
      <stop offset="0%" style="stop-color:#4f46e5;stop-opacity:1" />
      <stop offset="100%" style="stop-color:#06b6d4;stop-opacity:1" />
    </linearGradient>
  </defs>
  
  <!-- Background -->
  <rect width="800" height="600" fill="url(#grad2)"/>
  
  <!-- Mock dashboard window -->
  <rect x="50" y="80" width="700" height="440" rx="10" fill="white" stroke="#e2e8f0" stroke-width="2"/>
  
  <!-- Dashboard header -->
  <rect x="50" y="80" width="700" height="60" rx="10" fill="#1f2937"/>
  <text x="80" y="105" font-family="Arial, sans-serif" font-size="16" font-weight="bold" fill="white">Analytics Dashboard</text>
  <text x="80" y="125" font-family="Arial, sans-serif" font-size="12" fill="#9ca3af">Real-time Business Intelligence</text>
  
  <!-- Sidebar -->
  <rect x="50" y="140" width="150" height="380" fill="#f9fafb" stroke="#e5e7eb"/>
  <text x="65" y="165" font-family="Arial, sans-serif" font-size="12" font-weight="bold" fill="#374151">Navigation</text>
  <rect x="65" y="175" width="120" height="25" rx="4" fill="#3b82f6"/>
  <text x="75" y="190" font-family="Arial, sans-serif" font-size="11" fill="white">Overview</text>
  <text x="75" y="220" font-family="Arial, sans-serif" font-size="11" fill="#6b7280">Analytics</text>
  <text x="75" y="240" font-family="Arial, sans-serif" font-size="11" fill="#6b7280">Reports</text>
  <text x="75" y="260" font-family="Arial, sans-serif" font-size="11" fill="#6b7280">Settings</text>
  
  <!-- Main content area -->
  <!-- KPI Cards -->
  <rect x="220" y="160" width="120" height="80" rx="8" fill="#f0f9ff" stroke="#0ea5e9"/>
  <text x="280" y="180" font-family="Arial, sans-serif" font-size="12" fill="#0369a1" text-anchor="middle">Revenue</text>
  <text x="280" y="200" font-family="Arial, sans-serif" font-size="20" font-weight="bold" fill="#0c4a6e" text-anchor="middle">$124K</text>
  <text x="280" y="220" font-family="Arial, sans-serif" font-size="10" fill="#059669" text-anchor="middle">↑ 12.5%</text>
  
  <rect x="360" y="160" width="120" height="80" rx="8" fill="#f0fdf4" stroke="#22c55e"/>
  <text x="420" y="180" font-family="Arial, sans-serif" font-size="12" fill="#15803d" text-anchor="middle">Users</text>
  <text x="420" y="200" font-family="Arial, sans-serif" font-size="20" font-weight="bold" fill="#166534" text-anchor="middle">8,542</text>
  <text x="420" y="220" font-family="Arial, sans-serif" font-size="10" fill="#059669" text-anchor="middle">↑ 8.2%</text>
  
  <rect x="500" y="160" width="120" height="80" rx="8" fill="#fefce8" stroke="#eab308"/>
  <text x="560" y="180" font-family="Arial, sans-serif" font-size="12" fill="#a16207" text-anchor="middle">Conversion</text>
  <text x="560" y="200" font-family="Arial, sans-serif" font-size="20" font-weight="bold" fill="#854d0e" text-anchor="middle">3.2%</text>
  <text x="560" y="220" font-family="Arial, sans-serif" font-size="10" fill="#dc2626" text-anchor="middle">↓ 2.1%</text>
  
  <rect x="640" y="160" width="100" height="80" rx="8" fill="#fdf2f8" stroke="#ec4899"/>
  <text x="690" y="180" font-family="Arial, sans-serif" font-size="12" fill="#be185d" text-anchor="middle">Bounce</text>
  <text x="690" y="200" font-family="Arial, sans-serif" font-size="20" font-weight="bold" fill="#9d174d" text-anchor="middle">42%</text>
  <text x="690" y="220" font-family="Arial, sans-serif" font-size="10" fill="#059669" text-anchor="middle">↓ 5.3%</text>
  
  <!-- Chart area -->
  <rect x="220" y="260" width="520" height="240" rx="8" fill="#f8fafc" stroke="#e2e8f0"/>
  <text x="230" y="280" font-family="Arial, sans-serif" font-size="14" font-weight="bold" fill="#374151">Revenue Trends</text>
  
  <!-- Mock line chart -->
  <polyline points="240,450 280,430 320,440 360,410 400,420 440,390 480,380 520,360 560,370 600,340 640,320 680,310 720,300" 
           stroke="#3b82f6" stroke-width="3" fill="none"/>
  <polyline points="240,460 280,450 320,455 360,435 400,445 440,420 480,415 520,400 560,410 600,390 640,380 680,370 720,360" 
           stroke="#10b981" stroke-width="2" fill="none"/>
  
  <!-- Chart legend -->
  <circle cx="230" cy="320" r="4" fill="#3b82f6"/>
  <text x="245" y="325" font-family="Arial, sans-serif" font-size="10" fill="#374151">This Year</text>
  <circle cx="300" cy="320" r="4" fill="#10b981"/>
  <text x="315" y="325" font-family="Arial, sans-serif" font-size="10" fill="#374151">Last Year</text>
  
  <!-- Title -->
  <text x="400" y="40" font-family="Arial, sans-serif" font-size="24" font-weight="bold" fill="white" text-anchor="middle">Analytics Dashboard</text>
  <text x="400" y="60" font-family="Arial, sans-serif" font-size="14" fill="white" text-anchor="middle">Real-time Data Visualization</text>
</svg>