<svg width="800" height="600" xmlns="http://www.w3.org/2000/svg">
  <defs>
    <linearGradient id="grad1" x1="0%" y1="0%" x2="100%" y2="100%">
      <stop offset="0%" style="stop-color:#667eea;stop-opacity:1" />
      <stop offset="100%" style="stop-color:#764ba2;stop-opacity:1" />
    </linearGradient>
  </defs>
  
  <!-- Background -->
  <rect width="800" height="600" fill="url(#grad1)"/>
  
  <!-- Mock browser window -->
  <rect x="50" y="80" width="700" height="440" rx="10" fill="white" stroke="#e2e8f0" stroke-width="2"/>
  
  <!-- Browser header -->
  <rect x="50" y="80" width="700" height="40" rx="10" fill="#f8fafc"/>
  <circle cx="80" cy="100" r="6" fill="#ef4444"/>
  <circle cx="105" cy="100" r="6" fill="#f59e0b"/>
  <circle cx="130" cy="100" r="6" fill="#10b981"/>
  
  <!-- Navigation bar -->
  <rect x="70" y="140" width="120" height="30" rx="4" fill="#3b82f6"/>
  <text x="130" y="158" font-family="Arial, sans-serif" font-size="12" fill="white" text-anchor="middle">Shop</text>
  
  <rect x="200" y="140" width="120" height="30" rx="4" fill="#e5e7eb"/>
  <text x="260" y="158" font-family="Arial, sans-serif" font-size="12" fill="#374151" text-anchor="middle">Categories</text>
  
  <rect x="330" y="140" width="120" height="30" rx="4" fill="#e5e7eb"/>
  <text x="390" y="158" font-family="Arial, sans-serif" font-size="12" fill="#374151" text-anchor="middle">About</text>
  
  <!-- Shopping cart icon -->
  <rect x="600" y="140" width="80" height="30" rx="4" fill="#059669"/>
  <text x="640" y="158" font-family="Arial, sans-serif" font-size="12" fill="white" text-anchor="middle">Cart (3)</text>
  
  <!-- Product grid -->
  <rect x="90" y="200" width="150" height="120" rx="8" fill="#f3f4f6" stroke="#d1d5db"/>
  <rect x="100" y="210" width="130" height="80" rx="4" fill="#e5e7eb"/>
  <text x="165" y="305" font-family="Arial, sans-serif" font-size="11" fill="#374151" text-anchor="middle">Product 1</text>
  <text x="165" y="318" font-family="Arial, sans-serif" font-size="10" fill="#6b7280" text-anchor="middle">$99.99</text>
  
  <rect x="260" y="200" width="150" height="120" rx="8" fill="#f3f4f6" stroke="#d1d5db"/>
  <rect x="270" y="210" width="130" height="80" rx="4" fill="#e5e7eb"/>
  <text x="335" y="305" font-family="Arial, sans-serif" font-size="11" fill="#374151" text-anchor="middle">Product 2</text>
  <text x="335" y="318" font-family="Arial, sans-serif" font-size="10" fill="#6b7280" text-anchor="middle">$149.99</text>
  
  <rect x="430" y="200" width="150" height="120" rx="8" fill="#f3f4f6" stroke="#d1d5db"/>
  <rect x="440" y="210" width="130" height="80" rx="4" fill="#e5e7eb"/>
  <text x="505" y="305" font-family="Arial, sans-serif" font-size="11" fill="#374151" text-anchor="middle">Product 3</text>
  <text x="505" y="318" font-family="Arial, sans-serif" font-size="10" fill="#6b7280" text-anchor="middle">$79.99</text>
  
  <rect x="600" y="200" width="150" height="120" rx="8" fill="#f3f4f6" stroke="#d1d5db"/>
  <rect x="610" y="210" width="130" height="80" rx="4" fill="#e5e7eb"/>
  <text x="675" y="305" font-family="Arial, sans-serif" font-size="11" fill="#374151" text-anchor="middle">Product 4</text>
  <text x="675" y="318" font-family="Arial, sans-serif" font-size="10" fill="#6b7280" text-anchor="middle">$199.99</text>
  
  <!-- Title -->
  <text x="400" y="40" font-family="Arial, sans-serif" font-size="24" font-weight="bold" fill="white" text-anchor="middle">E-commerce Platform</text>
  <text x="400" y="60" font-family="Arial, sans-serif" font-size="14" fill="white" text-anchor="middle">Modern Shopping Experience</text>
</svg>